<svg fill="#EDA41D" height="48px" width="48px" version="1.1" id="Layer_1" xmlns="http://www.w3.org/2000/svg" xmlns:xlink="http://www.w3.org/1999/xlink" viewBox="0 0 492.308 492.308" xml:space="preserve"><g id="SVGRepo_bgCarrier" stroke-width="0"></g><g id="SVGRepo_tracerCarrier" stroke-linecap="round" stroke-linejoin="round"></g><g id="SVGRepo_iconCarrier"> <g> <g> <path d="M408.238,178.635l66.654-65.106l-66.654-65.106H270.666V0h-77.207v48.423h-53.644v130.212h53.644v27.495H84.07 l-66.654,65.106l66.654,65.111h109.389v155.962h77.207V336.346h81.827V206.13h-81.827v-27.495H408.238z M213.151,19.692h37.822 v28.731h-37.822V19.692z M250.974,472.615h-37.822V336.346h37.822V472.615z M332.801,225.822v90.832H92.089l-46.49-45.418 l46.49-45.413H332.801z M213.151,206.13v-27.495h37.822v27.495H213.151z M159.507,158.942V68.115h240.712l46.49,45.413 l-46.49,45.413H159.507z"></path> </g> </g> </g></svg>